<svg width="48" height="48" viewBox="0 0 48 48" fill="none" xmlns="http://www.w3.org/2000/svg">
<path d="M36 21.1462H34.8525V25.7137H36V21.1462Z" fill="black"/>
<path d="M34.8524 25.7137H33.7124V26.8612H34.8524V25.7137Z" fill="black"/>
<path d="M34.8524 19.9987H33.7124V21.1462H34.8524V19.9987Z" fill="black"/>
<path d="M33.7123 26.8613H32.5723V28.0013H33.7123V26.8613Z" fill="black"/>
<path d="M33.7123 18.8588H32.5723V19.9988H33.7123V18.8588Z" fill="black"/>
<path d="M30.2852 17.7187V16.5712H29.1377V18.8587H32.5727V17.7187H30.2852Z" fill="black"/>
<path d="M32.5726 28.0012H27.9976V29.1412H32.5726V28.0012Z" fill="black"/>
<path d="M29.1376 18.8588H27.9976V19.9988H29.1376V18.8588Z" fill="black"/>
<path d="M29.1376 15.4312H27.9976V16.5712H29.1376V15.4312Z" fill="black"/>
<path d="M27.9974 19.9987H26.8574V21.1462H27.9974V19.9987Z" fill="black"/>
<path d="M27.9975 14.2838H25.71V15.4313H27.9975V14.2838Z" fill="black"/>
<path d="M22.2826 26.8613V30.2888H19.9951V31.4288H21.1426V32.5688H22.2826V33.7163H23.4301V34.8563H24.5701V33.7163H25.7101V32.5688H26.8576V31.4288H27.9976V30.2888H25.7101V26.8613H22.2826Z" fill="black"/>
<path d="M25.7102 13.1437H22.2827V14.2837H25.7102V13.1437Z" fill="black"/>
<path d="M21.1426 21.1462H19.9951V22.2862H21.1426V21.1462Z" fill="black"/>
<path d="M22.2826 14.2838H19.9951V15.4313H22.2826V14.2838Z" fill="black"/>
<path d="M19.995 19.9987H18.855V21.1462H19.995V19.9987Z" fill="black"/>
<path d="M19.995 15.4312H18.855V16.5712H19.995V15.4312Z" fill="black"/>
<path d="M17.7151 18.8587H14.2876V19.9987H18.8551V16.5712H17.7151V18.8587Z" fill="black"/>
<path d="M19.9951 28.0012H14.2876V29.1412H19.9951V28.0012Z" fill="black"/>
<path d="M14.2876 26.8613H13.1401V28.0013H14.2876V26.8613Z" fill="black"/>
<path d="M14.2876 19.9987H13.1401V21.1462H14.2876V19.9987Z" fill="black"/>
<path d="M13.14 21.1462H12V26.8612H13.14V21.1462Z" fill="black"/>
</svg>
