<svg width="16" height="16" viewBox="0 0 16 16" fill="none" xmlns="http://www.w3.org/2000/svg">
<g clip-path="url(#clip0_25_1028)">
<path d="M15.6177 4.19006H14.8577V7.24006H15.6177V4.19006Z" fill="#000001"/>
<path d="M14.8575 3.43005H14.0925V4.19005H14.8575V3.43005Z" fill="#000001"/>
<path d="M14.0925 14.095H13.3325V14.86H14.0925V14.095Z" fill="#000001"/>
<path d="M13.3325 7.99999H14.0925V14.095H14.8575V7.23999H13.3325V7.99999Z" fill="#000001"/>
<path d="M13.3326 8H11.8076V8.765H13.3326V8Z" fill="#000001"/>
<path d="M13.3325 14.86H2.66748V15.62H13.3325V14.86Z" fill="#000001"/>
<path d="M11.8076 8.76501H10.2876V9.52501H11.8076V8.76501Z" fill="#000001"/>
<path d="M7.23765 10.285V11.81H8.76265V10.285H10.2876V9.52501H8.76265V8.76501H7.23765V9.52501H5.71265V10.285H7.23765Z" fill="#000001"/>
<path d="M11.8075 0.380005H4.1875V1.145H11.8075V0.380005Z" fill="#000001"/>
<path d="M5.7125 8.76501H4.1875V9.52501H5.7125V8.76501Z" fill="#000001"/>
<path d="M4.18748 8H2.66748V8.765H4.18748V8Z" fill="#000001"/>
<path d="M14.0926 3.43002V2.67002H12.5726V1.14502H11.8076V2.67002H4.18759V1.14502H3.42759V2.67002H1.90259V3.43002H14.0926Z" fill="#000001"/>
<path d="M2.66759 14.095H1.90259V14.86H2.66759V14.095Z" fill="#000001"/>
<path d="M1.90258 7.99999H2.66758V7.23999H1.14258V14.095H1.90258V7.99999Z" fill="#000001"/>
<path d="M1.90258 3.43005H1.14258V4.19005H1.90258V3.43005Z" fill="#000001"/>
<path d="M1.14257 4.19006H0.382568V7.24006H1.14257V4.19006Z" fill="#000001"/>
</g>
<defs>
<clipPath id="clip0_25_1028">
<rect width="16" height="16" fill="white"/>
</clipPath>
</defs>
</svg>
