<svg width="16" height="16" viewBox="0 0 16 16" fill="none" xmlns="http://www.w3.org/2000/svg">
<g clip-path="url(#clip0_25_972)">
<path d="M15.24 15.2399H3.81V14.4749H3.05V15.2399H1.525V14.4749H0.765V15.2399H0V15.9999H16V12.1899H15.24V15.2399Z" fill="#000001"/>
<path d="M14.4751 12.95H12.9551V14.475H14.4751V12.95Z" fill="#000001"/>
<path d="M15.2399 11.4301H12.1899V12.1901H15.2399V11.4301Z" fill="#000001"/>
<path d="M13.7151 2.28503H12.9551V3.81003H13.7151V2.28503Z" fill="#000001"/>
<path d="M12.1899 13.715H11.4299V14.475H12.1899V13.715Z" fill="#000001"/>
<path d="M12.1899 12.1899H11.4299V12.9499H12.1899V12.1899Z" fill="#000001"/>
<path d="M12.9549 3.81006H11.4299V4.57006H12.9549V3.81006Z" fill="#000001"/>
<path d="M12.9549 1.52502H11.4299V2.28502H12.9549V1.52502Z" fill="#000001"/>
<path d="M11.4299 11.4301H10.6699V12.1901H11.4299V11.4301Z" fill="#000001"/>
<path d="M10.67 13.715H9.90503V14.475H10.67V13.715Z" fill="#000001"/>
<path d="M9.90488 3.81006H9.14488V5.33506H8.37988V6.09506H9.90488V5.33506H11.4299V4.57006H9.90488V3.81006Z" fill="#000001"/>
<path d="M11.43 0.76001H9.90503V1.52501H11.43V0.76001Z" fill="#000001"/>
<path d="M9.90502 12.1899H9.14502V12.9499H9.90502V12.1899Z" fill="#000001"/>
<path d="M9.14488 2.28503H8.37988V3.81003H9.14488V2.28503Z" fill="#000001"/>
<path d="M8.38011 12.95H6.86011V14.475H8.38011V12.95Z" fill="#000001"/>
<path d="M10.6701 11.43V10.665H9.14511V9.90503H8.38011V10.665H6.86011V11.43H10.6701Z" fill="#000001"/>
<path d="M8.38012 8.38H7.62012V9.905H8.38012V8.38Z" fill="#000001"/>
<path d="M8.38011 1.52502H6.86011V2.28502H8.38011V1.52502Z" fill="#000001"/>
<path d="M8.37996 6.85497V6.09497H6.85996V6.85497H5.33496V7.61997H6.85996V8.37997H7.61996V6.85497H8.37996Z" fill="#000001"/>
<path d="M6.85996 11.4301H5.33496V12.1901H6.85996V11.4301Z" fill="#000001"/>
<path d="M6.09496 13.715H5.33496V14.475H6.09496V13.715Z" fill="#000001"/>
<path d="M5.33507 12.1899H4.57007V12.9499H5.33507V12.1899Z" fill="#000001"/>
<path d="M4.57006 6.09497H3.81006V8.37997H5.33506V7.61997H4.57006V6.09497Z" fill="#000001"/>
<path d="M4.56991 12.95H2.28491V13.715H4.56991V12.95Z" fill="#000001"/>
<path d="M3.81005 3.81006H3.05005V6.09506H3.81005V3.81006Z" fill="#000001"/>
<path d="M3.80991 3.81H4.56991V1.525H6.85991V0.76H9.90491V0H5.33491V0.76H3.80991V1.525H2.28491V2.285H3.80991V3.81Z" fill="#000001"/>
<path d="M3.80991 8.38H2.28491V9.14001H3.80991V8.38Z" fill="#000001"/>
<path d="M2.2849 13.715H1.5249V14.475H2.2849V13.715Z" fill="#000001"/>
<path d="M2.2849 2.28503H1.5249V3.81003H2.2849V2.28503Z" fill="#000001"/>
<path d="M2.28489 9.14001H0.764893V9.90501H2.28489V9.14001Z" fill="#000001"/>
<path d="M1.52489 3.81006H0.764893V6.09506H1.52489V3.81006Z" fill="#000001"/>
<path d="M0.765 6.09497H0V9.13997H0.765V6.09497Z" fill="#000001"/>
</g>
<defs>
<clipPath id="clip0_25_972">
<rect width="16" height="16" fill="white"/>
</clipPath>
</defs>
</svg>
