<svg width="16" height="16" viewBox="0 0 16 16" fill="none" xmlns="http://www.w3.org/2000/svg">
<path d="M13.715 2.28503V3.05003H15.235V6.86003H12.95V7.62003H9.90501V8.38003H6.85501V9.14503H4.57001V9.90503H0.76001V10.67H1.52501V11.43H8.38001V10.67H7.62001V9.90503H9.14001V9.14503H11.43V9.90503H12.19V10.67H12.95V9.14503H14.475V8.38003H15.235V7.62003H16V2.28503H13.715Z" fill="#000001"/>
<path d="M15.2351 12.1901H14.4751V13.7151H15.2351V12.1901Z" fill="#000001"/>
<path d="M14.4751 11.4301H13.7151V12.1901H14.4751V11.4301Z" fill="#000001"/>
<path d="M14.475 13.715H12.95V14.475H14.475V13.715Z" fill="#000001"/>
<path d="M13.715 10.67H12.95V11.43H13.715V10.67Z" fill="#000001"/>
<path d="M13.715 3.05005H12.95V4.57005H13.715V3.05005Z" fill="#000001"/>
<path d="M12.9499 12.9551H11.4299V13.7151H12.9499V12.9551Z" fill="#000001"/>
<path d="M12.9499 4.57007H12.1899V5.33507H12.9499V4.57007Z" fill="#000001"/>
<path d="M12.1899 2.28503H11.4299V3.81003H12.1899V2.28503Z" fill="#000001"/>
<path d="M11.43 12.1901H9.90503V12.9551H11.43V12.1901Z" fill="#000001"/>
<path d="M11.43 3.81006H10.665V4.57006H11.43V3.81006Z" fill="#000001"/>
<path d="M11.43 1.52502H9.90503V2.28502H11.43V1.52502Z" fill="#000001"/>
<path d="M9.90488 11.4301H8.37988V12.1901H9.90488V11.4301Z" fill="#000001"/>
<path d="M9.90488 2.28503H8.37988V3.05003H9.90488V2.28503Z" fill="#000001"/>
<path d="M9.13988 6.85999H8.37988V7.61999H9.13988V6.85999Z" fill="#000001"/>
<path d="M8.38012 3.05005H7.62012V3.81005H8.38012V3.05005Z" fill="#000001"/>
<path d="M7.61998 6.85999H6.85498V7.61999H7.61998V6.85999Z" fill="#000001"/>
<path d="M7.61998 3.81006H6.85498V4.57006H7.61998V3.81006Z" fill="#000001"/>
<path d="M6.09508 6.85999H5.33008V7.61999H6.09508V6.85999Z" fill="#000001"/>
<path d="M3.80992 6.85999H3.04492V8.37999H3.80992V6.85999Z" fill="#000001"/>
<path d="M3.0449 6.09507H12.1899V5.33507H10.6649V4.57007H9.9049V5.33507H6.8549V4.57007H6.0949V5.33507H2.2849V6.09507H1.5249V6.86007H3.0449V6.09507Z" fill="#000001"/>
<path d="M3.045 9.145V8.38H0.76V7.62H0V9.90499H0.76V9.145H3.045Z" fill="#000001"/>
<path d="M1.52501 6.85999H0.76001V7.61999H1.52501V6.85999Z" fill="#000001"/>
</svg>
