<svg width="16" height="16" viewBox="0 0 16 16" fill="none" xmlns="http://www.w3.org/2000/svg">
<path d="M15.235 13.3325H0.76V11.8075H0V14.0925H0.76V14.8575H15.235V14.0925H16V11.8075H15.235V13.3325Z" fill="#000001"/>
<path d="M15.2351 10.2825H14.4751V11.8075H15.2351V10.2825Z" fill="#000001"/>
<path d="M9.90489 5.7124H9.13989V6.4724H9.90489V5.7124Z" fill="#000001"/>
<path d="M9.13998 11.8075H6.85498V12.5675H9.13998V11.8075Z" fill="#000001"/>
<path d="M8.38012 5.7124H7.62012V6.4724H8.38012V5.7124Z" fill="#000001"/>
<path d="M6.85497 5.7124H6.09497V6.4724H6.85497V5.7124Z" fill="#000001"/>
<path d="M13.7149 1.14246H2.28491V1.90246H13.7149V1.14246Z" fill="#000001"/>
<path d="M14.4749 10.2825V1.90247H13.7149V9.52247H2.2849V1.90247H1.5249V10.2825H14.4749Z" fill="#000001"/>
<path d="M1.52501 10.2825H0.76001V11.8075H1.52501V10.2825Z" fill="#000001"/>
</svg>
